<svg width="36" height="36" viewBox="0 0 36 36" fill="none" xmlns="http://www.w3.org/2000/svg">
<g clip-path="url(#clip0_2_267)">
<path d="M15.795 16.095C15.645 15.63 15.51 15.18 15.36 14.715C15.21 14.25 15.075 13.815 14.955 13.38C14.835 12.96 14.73 12.57 14.625 12.21H14.595C14.46 12.855 14.295 13.5 14.085 14.145C13.86 14.865 13.635 15.615 13.395 16.365C13.185 17.13 12.96 17.835 12.735 18.465H16.545C16.455 18.1485 16.335 17.775 16.2 17.3835C16.065 16.98 15.93 16.545 15.795 16.095ZM29.625 0.450012H6.375C2.85 0.450012 0 3.30001 0 6.82501V29.175C0 32.7 2.85 35.55 6.375 35.55H29.625C33.15 35.55 36 32.7 36 29.175V6.82501C36 3.30001 33.15 0.450012 29.625 0.450012ZM22.05 25.245H18.9135C18.81 25.26 18.705 25.185 18.675 25.08L17.445 21.51H11.865L10.725 25.035C10.695 25.17 10.575 25.26 10.44 25.2465H7.62C7.455 25.2465 7.41 25.155 7.455 24.9765L12.285 11.07C12.33 10.92 12.375 10.755 12.435 10.575C12.495 10.26 12.525 9.93001 12.525 9.60001C12.51 9.52501 12.57 9.45001 12.645 9.43501H16.53C16.65 9.43501 16.71 9.48001 16.725 9.55501L22.2 25.005C22.245 25.1685 22.2 25.245 22.05 25.245ZM27.15 25.02C27.15 25.185 27.0915 25.26 26.9565 25.26H24.015C23.865 25.26 23.79 25.1685 23.79 25.02V13.47C23.79 13.32 23.8515 13.26 23.9865 13.26H26.9565C27.0915 13.26 27.15 13.335 27.15 13.47V25.02ZM26.8365 11.475C26.6594 11.6549 26.4458 11.7949 26.2101 11.8854C25.9744 11.976 25.722 12.015 25.47 12C24.975 12.015 24.495 11.82 24.1335 11.475C23.7898 11.0992 23.6068 10.604 23.6235 10.095C23.6085 9.58501 23.8035 9.10501 24.162 8.76001C24.525 8.41501 25.005 8.23501 25.5 8.23501C26.0865 8.23501 26.5335 8.41501 26.865 8.76001C27.195 9.12001 27.375 9.60001 27.36 10.095C27.375 10.605 27.195 11.1 26.8365 11.475Z" fill="white"/>
</g>
<defs>
<clipPath id="clip0_2_267">
<rect width="36" height="36" fill="white"/>
</clipPath>
</defs>
</svg>
