<svg width="36" height="36" viewBox="0 0 36 36" fill="none" xmlns="http://www.w3.org/2000/svg">
<g clip-path="url(#clip0_2_248)">
<path d="M11.253 0H15.12V1.617H12.87V3.234H15.12V4.851H11.253V0ZM15.8925 0H19.761V1.407H17.511V1.6875H19.761V4.9215H15.8925V3.4455H18.1425V3.1635H15.8925V0ZM20.535 0H24.4005V1.407H22.1505V1.6875H24.4005V4.9215H20.535V3.4455H22.785V3.1635H20.535V0Z" fill="white"/>
<path fill-rule="evenodd" clip-rule="evenodd" d="M17.9865 36L7.5705 33.108L4.5 7.0755H31.5L28.431 33.105L17.9865 36ZM10.5705 18.8595L10.857 22.0515H21.9225L21.552 26.1915L17.991 27.1545H17.988L14.433 26.1945L14.205 23.649H10.9995L11.4465 28.662L17.9865 30.477L24.537 28.662L25.335 19.716L25.413 18.8595L25.989 12.396H9.996L10.287 15.5895H22.491L22.2 18.8595H10.5705Z" fill="white"/>
</g>
<defs>
<clipPath id="clip0_2_248">
<rect width="36" height="36" fill="white"/>
</clipPath>
</defs>
</svg>
