<svg width="36" height="36" viewBox="0 0 36 36" fill="none" xmlns="http://www.w3.org/2000/svg">
<path d="M9 4.5C7.80653 4.5 6.66193 4.97411 5.81802 5.81802C4.97411 6.66193 4.5 7.80653 4.5 9V27C4.5 28.1935 4.97411 29.3381 5.81802 30.182C6.66193 31.0259 7.80653 31.5 9 31.5H27C28.1935 31.5 29.3381 31.0259 30.182 30.182C31.0259 29.3381 31.5 28.1935 31.5 27V9C31.5 7.80653 31.0259 6.66193 30.182 5.81802C29.3381 4.97411 28.1935 4.5 27 4.5H9ZM20.001 24.0825C21.081 24.9525 22.158 25.38 23.235 25.3695C23.895 25.3695 24.402 25.2495 24.753 25.0065C24.9169 24.9001 25.0502 24.7529 25.1399 24.5793C25.2296 24.4057 25.2726 24.2117 25.2645 24.0165C25.2667 23.8036 25.2221 23.5928 25.134 23.3989C25.0459 23.205 24.9164 23.0329 24.7545 22.8945C24.402 22.587 23.736 22.2795 22.7565 21.9705C21.5805 21.63 20.6715 21.1905 20.034 20.6505C19.407 20.1105 19.089 19.3575 19.077 18.39C19.077 17.4765 19.473 16.713 20.265 16.0965C21.036 15.4815 22.02 15.1725 23.22 15.1725C24.891 15.1725 26.2335 15.579 27.2445 16.3935L26.0895 18.192C25.6737 17.8685 25.1966 17.6328 24.687 17.499C24.2291 17.3458 23.7507 17.2624 23.268 17.2515C22.698 17.2515 22.2405 17.3565 21.8985 17.565C21.558 17.775 21.3885 18.0495 21.3885 18.39C21.3885 18.765 21.597 19.083 22.014 19.347C22.434 19.6005 23.148 19.881 24.159 20.1885C25.38 20.5515 26.25 21.036 26.766 21.6405C27.2835 22.245 27.5415 23.016 27.5415 23.9505C27.5415 24.9075 27.174 25.7325 26.436 26.4255C25.71 27.108 24.654 27.465 23.268 27.498C21.453 27.498 19.935 26.9535 18.714 25.8645L20.001 24.0825ZM11.706 25.0395C12.0585 25.26 12.4815 25.3695 12.9765 25.3695C13.494 25.3695 13.9215 25.221 14.2635 24.924C14.604 24.6165 14.775 24.0825 14.775 23.3235V15.3705H17.0025V23.7525C16.9695 25.05 16.596 25.986 15.8805 26.5575C15.4901 26.8895 15.035 27.1367 14.544 27.2835C14.0892 27.4221 13.6169 27.4943 13.1415 27.498C12.3165 27.498 11.5845 27.3555 10.947 27.069C10.2645 26.7615 9.693 26.217 9.231 25.4355L10.782 24.165C11.067 24.5505 11.376 24.8415 11.706 25.0395Z" fill="white"/>
</svg>
