<svg width="36" height="36" viewBox="0 0 36 36" fill="none" xmlns="http://www.w3.org/2000/svg">
<g clip-path="url(#clip0_2_263)">
<path d="M14.775 12.63C14.22 12.405 13.62 12.315 13.005 12.33C12.615 12.33 12.27 12.33 11.985 12.345C11.685 12.33 11.475 12.345 11.37 12.36V17.4C11.58 17.415 11.775 17.43 11.955 17.43H12.75C13.335 17.43 13.92 17.34 14.475 17.16C14.955 17.025 15.375 16.74 15.705 16.365C16.02 15.99 16.17 15.48 16.17 14.82C16.185 14.355 16.065 13.89 15.825 13.485C15.5749 13.0955 15.2071 12.796 14.775 12.63ZM29.625 0.450012H6.375C2.85 0.450012 0 3.30001 0 6.82501V29.1735C0 32.6985 2.85 35.5485 6.375 35.5485H29.625C33.15 35.5485 36 32.6985 36 29.1735V6.82501C36 3.30001 33.15 0.450012 29.625 0.450012ZM18.5385 17.925C17.94 18.765 17.1 19.395 16.125 19.755C15.105 20.13 13.98 20.265 12.75 20.265C12.39 20.265 12.15 20.265 12 20.25C11.85 20.235 11.64 20.235 11.355 20.235V25.0485C11.37 25.1535 11.295 25.245 11.19 25.26H8.28C8.16 25.26 8.1 25.1985 8.1 25.0635V9.63001C8.1 9.52501 8.145 9.46501 8.25 9.46501C8.505 9.46501 8.745 9.46501 9.09 9.45001C9.45 9.43501 9.825 9.43501 10.23 9.42001C10.635 9.40501 11.07 9.40501 11.535 9.39001C12 9.37501 12.45 9.37501 12.9 9.37501C14.13 9.37501 15.15 9.52501 15.99 9.84001C16.74 10.095 17.43 10.515 18 11.07C18.48 11.55 18.855 12.135 19.095 12.78C19.3185 13.41 19.4385 14.055 19.4385 14.73C19.44 16.02 19.14 17.085 18.5385 17.925ZM29.175 23.76C28.755 24.36 28.1685 24.8235 27.495 25.0965C26.76 25.41 25.86 25.5735 24.7785 25.5735C24.09 25.5735 23.4135 25.515 22.74 25.38C22.215 25.2885 21.69 25.125 21.21 24.9C21.105 24.8415 21.0285 24.7365 21.0435 24.6165V22.0065C21.0435 21.963 21.06 21.9015 21.105 21.8715C21.1485 21.8415 21.195 21.8565 21.24 21.8865C21.825 22.2315 22.44 22.473 23.1 22.6215C23.6685 22.7715 24.2685 22.8465 24.87 22.8465C25.44 22.8465 25.845 22.77 26.115 22.635C26.355 22.53 26.52 22.275 26.52 22.005C26.52 21.7935 26.4 21.6 26.16 21.405C25.92 21.2115 25.4265 20.9865 24.6915 20.6985C23.9265 20.4285 23.223 20.0685 22.5615 19.62C22.0921 19.2838 21.7024 18.8486 21.42 18.345C21.1816 17.8704 21.0636 17.3445 21.0765 16.8135C21.0765 16.1685 21.2565 15.5535 21.588 14.9985C21.963 14.3985 22.5165 13.9185 23.1615 13.6185C23.865 13.26 24.75 13.095 25.815 13.095C26.43 13.095 27.06 13.14 27.675 13.23C28.125 13.29 28.56 13.41 28.965 13.575C29.0235 13.59 29.085 13.65 29.115 13.71C29.13 13.77 29.145 13.83 29.145 13.89V16.335C29.145 16.395 29.115 16.455 29.07 16.485C28.935 16.515 28.86 16.515 28.8 16.485C28.35 16.245 27.87 16.08 27.36 15.975C26.805 15.855 26.25 15.78 25.68 15.78C25.38 15.765 25.065 15.81 24.7785 15.885C24.585 15.93 24.4185 16.035 24.3135 16.185C24.2385 16.305 24.1935 16.455 24.1935 16.59C24.1935 16.725 24.2535 16.86 24.345 16.98C24.48 17.145 24.6585 17.28 24.855 17.385C25.1985 17.565 25.56 17.73 25.9185 17.88C26.73 18.15 27.51 18.525 28.23 18.975C28.725 19.2885 29.13 19.71 29.4135 20.22C29.6535 20.697 29.7735 21.225 29.7585 21.7635C29.775 22.47 29.565 23.1735 29.175 23.76Z" fill="white"/>
</g>
<defs>
<clipPath id="clip0_2_263">
<rect width="36" height="36" fill="white"/>
</clipPath>
</defs>
</svg>
