<svg width="36" height="36" viewBox="0 0 36 36" fill="none" xmlns="http://www.w3.org/2000/svg">
<path d="M33.75 25.2V8.39925L19.3725 0V6.45075L25.0042 9.74925C25.227 9.9 25.227 10.1993 25.0042 10.2758L18.333 14.175C18.1102 14.3258 17.8898 14.2493 17.7413 14.175L11.07 10.2758C10.8472 10.1993 10.8472 9.82575 11.07 9.74925L16.704 6.45075V0L2.25 8.39925V25.2L7.7355 21.9757V15.3743C7.7355 15.1493 8.03025 15.0007 8.17875 15.075L14.85 18.9742C15.0728 19.125 15.147 19.2757 15.147 19.5007V27.2993C15.147 27.5243 14.85 27.675 14.7015 27.6007L9.06975 24.3L3.58425 27.5243L17.9618 36L32.3415 27.6007L26.856 24.3743L21.2265 27.675C21.0037 27.8258 20.781 27.675 20.781 27.3757V19.575C20.781 19.35 20.9295 19.125 21.078 19.0508L27.7493 15.1493C27.972 15.0007 28.1925 15.1493 28.1925 15.4508V22.05L33.75 25.2Z" fill="white"/>
</svg>
