<svg width="36" height="36" viewBox="0 0 36 36" fill="none" xmlns="http://www.w3.org/2000/svg">
<g clip-path="url(#clip0_2_279)">
<path d="M6.52079 2.39999H1.19999C0.988845 2.39993 0.781421 2.45558 0.598663 2.56132C0.415905 2.66707 0.264283 2.81916 0.159107 3.00224C0.0539308 3.18533 -0.00107606 3.39292 -0.000359295 3.60407C0.000357475 3.81521 0.0567725 4.02243 0.163189 4.20479L16.9632 33.0048C17.0688 33.1861 17.2202 33.3365 17.4021 33.441C17.584 33.5456 17.7902 33.6006 18 33.6006C18.2098 33.6006 18.416 33.5456 18.5979 33.441C18.7798 33.3365 18.9311 33.1861 19.0368 33.0048L35.8368 4.20479C35.9432 4.02243 35.9996 3.81521 36.0003 3.60407C36.0011 3.39292 35.946 3.18533 35.8409 3.00224C35.7357 2.81916 35.5841 2.66707 35.4013 2.56132C35.2186 2.45558 35.0111 2.39993 34.8 2.39999H29.4792L18 21.5328L6.52079 2.39999Z" fill="white"/>
<path d="M26.6808 2.39999H19.656L18 5.71679L16.3416 2.39999H9.31921L18 16.8672L26.6808 2.39999Z" fill="white"/>
</g>
<defs>
<clipPath id="clip0_2_279">
<rect width="36" height="36" fill="white"/>
</clipPath>
</defs>
</svg>
