<svg width="36" height="36" viewBox="0 0 36 36" fill="none" xmlns="http://www.w3.org/2000/svg">
<g clip-path="url(#clip0_2_261)">
<path d="M28.2525 0.450012H7.7475C5.69274 0.450012 3.72213 1.26626 2.26919 2.7192C0.816252 4.17214 0 6.14275 0 8.19751L0 27.8025C0 29.8573 0.816252 31.8279 2.26919 33.2808C3.72213 34.7338 5.69274 35.55 7.7475 35.55H28.2525C30.3073 35.55 32.2779 34.7338 33.7308 33.2808C35.1838 31.8279 36 29.8573 36 27.8025V8.19751C36 6.14275 35.1838 4.17214 33.7308 2.7192C32.2779 1.26626 30.3073 0.450012 28.2525 0.450012ZM19.0935 25.1865H15.663C15.423 25.1865 15.252 25.1775 15.156 25.017C14.8335 24.3885 14.511 23.7645 14.19 23.145C13.8581 22.5076 13.516 21.8755 13.164 21.249C12.7983 20.6005 12.4397 19.948 12.0885 19.2915H12.0645C11.7394 19.9401 11.4053 20.5841 11.0625 21.2235C10.7175 21.867 10.374 22.5075 10.0365 23.1435C9.69931 23.78 9.35378 24.4121 9 25.0395C8.934 25.185 8.8215 25.2 8.6595 25.2H5.352C5.2875 25.2 5.2515 25.2255 5.244 25.161C5.23532 25.102 5.24809 25.0419 5.28 24.9915L9.9405 17.334L5.4 9.65701C5.3505 9.59251 5.343 9.54001 5.376 9.49651C5.39375 9.47569 5.41621 9.45938 5.44151 9.44895C5.46681 9.43852 5.49423 9.43425 5.5215 9.43651H8.9265C9.0007 9.43343 9.07475 9.44568 9.144 9.47251C9.20149 9.50554 9.25072 9.55119 9.288 9.60601C9.5775 10.251 9.9 10.8945 10.254 11.538C10.608 12.1815 10.9665 12.8175 11.328 13.446C11.6895 14.0745 12.024 14.7105 12.33 15.354H12.354C12.6735 14.694 12.999 14.0505 13.332 13.422C13.665 12.7935 14.0025 12.162 14.346 11.526C14.6925 10.8885 15.0255 10.2555 15.348 9.63001C15.3659 9.56969 15.399 9.51496 15.444 9.47101C15.5039 9.44119 15.5709 9.42872 15.6375 9.43501H18.801C18.8366 9.42635 18.8742 9.43204 18.9056 9.45084C18.937 9.46965 18.9598 9.50006 18.969 9.53551C18.9753 9.56101 18.9743 9.58777 18.9661 9.61271C18.9578 9.63766 18.9427 9.65977 18.9225 9.67651L18.924 9.68251L14.4315 17.097L19.2375 24.9705C19.269 25.026 19.2765 25.0905 19.2615 25.152C19.2465 25.206 19.191 25.17 19.0935 25.1865ZM30.615 24.5565C29.8299 24.8836 29.0123 25.1264 28.176 25.281C27.4106 25.4231 26.634 25.4959 25.8555 25.4985C24.7443 25.5148 23.6433 25.2843 22.632 24.8235C21.6898 24.3872 20.9021 23.6754 20.373 22.782C19.7915 21.7397 19.5072 20.5578 19.551 19.365C19.5421 18.2566 19.8256 17.1654 20.373 16.2015C20.937 15.2196 21.7661 14.4164 22.7655 13.884C24.0284 13.2241 25.4495 12.9271 26.871 13.026C27 13.0335 27.153 13.0455 27.33 13.062V8.30401C27.33 8.19151 27.378 8.13451 27.4755 8.13451H30.5175C30.5513 8.1298 30.5856 8.13868 30.6129 8.15921C30.6401 8.17973 30.6582 8.21022 30.663 8.24401C30.6645 8.25596 30.6645 8.26806 30.663 8.28001V22.5555C30.663 22.83 30.675 23.127 30.699 23.4495C30.723 23.7705 30.744 24.06 30.759 24.318C30.7621 24.3677 30.75 24.4172 30.7243 24.4598C30.6986 24.5024 30.6604 24.5361 30.615 24.5565ZM26.9295 15.8385C27.0645 15.852 27.198 15.876 27.3285 15.9105V22.503C27.1556 22.5545 26.9775 22.5867 26.7975 22.599C26.5884 22.6159 26.3787 22.6239 26.169 22.623C25.7464 22.625 25.3261 22.5596 24.924 22.4295C24.5438 22.3098 24.1967 22.1034 23.91 21.8265C23.6109 21.5251 23.3802 21.1629 23.2335 20.7645C23.0538 20.2692 22.9678 19.7448 22.98 19.218C22.9484 18.5466 23.121 17.8814 23.475 17.31C23.7945 16.836 24.231 16.4535 24.7425 16.1985C25.2675 15.939 25.8465 15.8055 26.433 15.8115C26.5995 15.8145 26.7645 15.822 26.9295 15.8385Z" fill="white"/>
</g>
<defs>
<clipPath id="clip0_2_261">
<rect width="36" height="36" fill="white"/>
</clipPath>
</defs>
</svg>
