<svg width="36" height="27" viewBox="0 0 36 27" fill="none" xmlns="http://www.w3.org/2000/svg">
<g clip-path="url(#clip0_2_251)">
<path d="M30.9746 15.2956L31.1231 15.2933C32.0613 15.2933 32.9489 15.5084 33.7364 15.892L33.7016 15.8765C34.4021 16.21 35.0004 16.7208 35.4352 17.3566L35.4453 17.3721C35.8237 17.9194 36.0109 18.5733 35.9786 19.2348V19.2281C35.9627 19.5337 35.885 19.8332 35.7502 20.1088C35.6153 20.3845 35.426 20.6309 35.1933 20.8335L35.1911 20.8357C34.9399 21.0788 34.6387 21.2659 34.3079 21.3845L34.2911 21.3901C34.1036 21.427 34.0004 21.3993 33.9817 21.3069C33.9629 21.2145 34.0473 21.1129 34.2348 21.002C34.7433 20.6982 35.1112 20.2082 35.2451 19.6306L35.2484 19.6161C35.2776 19.2311 35.1998 18.8456 35.0234 18.5008L35.029 18.513C34.793 18.0228 34.4278 17.6039 33.9716 17.3001L33.9603 17.2934C33.2553 16.85 32.4506 16.5839 31.6169 16.5185L31.5989 16.5173C30.405 16.3499 29.1874 16.4893 28.0642 16.922L28.1114 16.9054C28.2746 17.2812 28.3769 17.717 28.3916 18.1737V18.1793C28.3834 18.6243 28.261 19.0601 28.0357 19.4459C27.8105 19.8317 27.4897 20.155 27.1034 20.3856L27.0911 20.3922C26.7423 20.6361 26.3441 20.8501 25.9199 21.0164L25.8806 21.0297C25.5729 21.1758 25.2326 21.2422 24.8917 21.2226H24.8973C24.1856 21.0756 24.0168 20.4658 24.3911 19.3933C24.5542 18.9265 24.7826 18.5219 25.0717 18.166L25.0649 18.1737C25.4351 17.697 25.8412 17.279 26.2901 16.9087L26.3024 16.8987L26.1922 16.7369C25.9737 16.3648 25.7907 15.9736 25.6454 15.5683L25.6297 15.5173C25.5172 15.1477 25.4234 14.797 25.3484 14.4651L25.2922 14.0771L24.7297 15.1293C24.2422 16.0162 23.7734 16.7919 23.3234 17.4564L23.1547 17.7336C23.3437 18.1859 23.4832 18.7103 23.5462 19.258L23.5484 19.2858C23.5796 19.7133 23.4984 20.1415 23.3128 20.5291C23.1272 20.9167 22.8433 21.2506 22.4887 21.4987L22.4808 21.5043C22.1397 21.7095 21.7866 21.8946 21.4233 22.0586L21.3558 22.0863C20.931 22.2654 20.4774 22.3686 20.0159 22.3912H20.0058C19.6922 22.4127 19.3783 22.3538 19.0946 22.2205L19.1058 22.2249C18.9943 22.1315 18.9174 22.0044 18.8871 21.8634C18.8568 21.7223 18.8747 21.5754 18.9382 21.4455L18.9359 21.4499C19.3859 20.828 19.8292 20.2869 20.3006 19.7703L20.2859 19.7869L21.5234 18.2358L21.2996 17.7369C21.1052 17.381 20.9412 17.0098 20.8091 16.6271L20.7933 16.5739C20.6808 16.2043 20.5871 15.8536 20.5121 15.5217L20.4558 15.1337L19.8933 16.4641C19.4441 17.4982 19.0316 18.3848 18.6558 19.1239C18.0956 20.2326 17.6268 21.0826 17.2496 21.6739L17.1371 21.8402C16.6878 22.5416 16.2566 22.8923 15.8433 22.8923C15.4301 22.8923 15.1499 22.6336 15.0029 22.1163C14.8884 21.7018 14.8308 21.2741 14.8319 20.8446L14.8331 20.7248V20.7304L14.9456 19.9543V20.0097C14.6456 20.7112 14.3456 21.3575 14.0456 21.9488C13.8629 22.3049 13.6511 22.6456 13.4122 22.9677L13.4268 22.9467C13.1951 23.1861 12.8688 23.3347 12.5077 23.3347H12.4987C12.4751 23.3369 12.4481 23.3369 12.4211 23.3369C12.1479 23.3372 11.8844 23.2372 11.6819 23.0564L11.6831 23.0575C11.2839 22.6539 10.9965 22.1561 10.8483 21.6118L10.8427 21.5885C10.6216 20.9702 10.525 20.3153 10.5581 19.6605V19.6716C10.6469 18.7891 10.8258 17.9808 11.0879 17.2103L11.0643 17.289L9.04043 18.4531V18.5086C9.40957 19.2731 9.56455 20.1209 9.4893 20.9643L9.49043 20.9466C9.43595 22.0429 9.08099 23.1043 8.4633 24.0177L8.47793 23.9955C7.86029 24.9693 6.95048 25.7295 5.87468 26.1708L5.83755 26.1841C5.19085 26.4655 4.49135 26.6097 3.78443 26.6076C3.31418 26.6076 2.85743 26.5455 2.42543 26.428L2.46143 26.4357C2.11235 26.3215 1.816 26.0884 1.62555 25.7783L1.62218 25.7716C1.34962 25.3794 1.19269 24.9204 1.1688 24.4456V24.439C1.09765 23.7661 1.21802 23.087 1.51643 22.4777L1.5063 22.4999C2.13627 21.4333 3.03337 20.5439 4.1118 19.9166L4.14555 19.8989C4.95026 19.3536 5.79525 18.8685 6.67343 18.4476L6.79268 18.3955L7.07393 18.2292C6.73643 17.9705 6.11768 17.527 5.21768 16.8987C4.08267 16.1537 3.00226 15.3308 1.98443 14.4363L2.01255 14.4607C1.04798 13.6463 0.363631 12.557 0.0539266 11.3431L0.0449266 11.3009C-0.0845126 10.5145 0.0572921 9.70802 0.447677 9.01037L0.438677 9.02921C1.04111 7.73819 1.91909 6.59045 3.01268 5.66433L3.02618 5.65324C4.1966 4.56449 5.50585 3.63051 6.92093 2.87485L7.0188 2.82717C8.3926 2.0551 9.83433 1.40683 11.3264 0.890282L11.5177 0.83263C13.0684 0.284812 14.7033 0.00464112 16.3507 0.00443402H16.3529C17.7906 -0.0402674 19.2176 0.261932 20.5098 0.884738L20.4581 0.861456C21.4706 1.31602 22.2288 2.17193 22.5326 3.21854L22.5393 3.24515C22.8031 4.29985 22.7099 5.41062 22.2738 6.40826L22.2862 6.37611C21.8287 7.4833 21.1399 8.48321 20.2646 9.31082L20.2612 9.31415C19.3872 10.1682 18.3471 10.8394 17.2034 11.2876L17.1416 11.3087C15.8467 11.8474 14.4625 12.1476 13.0578 12.1945L13.0364 12.1956C12.1512 12.2895 11.2558 12.2104 10.4017 11.9628L10.4501 11.975C9.93008 11.8144 9.44967 11.5489 9.0393 11.1956L9.0438 11.1989C8.76587 10.9766 8.53824 10.6994 8.37555 10.3851L8.3688 10.3707C8.2563 10.0751 8.24693 9.89954 8.34068 9.84411C8.43443 9.78867 8.50005 9.77943 8.53755 9.81639L8.8188 10.0936C9.13268 10.3807 9.5073 10.6069 9.9213 10.751L9.9438 10.7577C10.5131 10.9528 11.1701 11.0659 11.8529 11.0659C12.0723 11.0659 12.2883 11.0548 12.5009 11.0315L12.4751 11.0337C14.2173 10.8374 15.8883 10.24 17.3531 9.28976L17.3114 9.31526C18.488 8.63035 19.468 7.66113 20.1588 6.49917L20.1791 6.46148C20.5177 5.97143 20.7202 5.36609 20.7202 4.71417C20.7202 4.31393 20.6437 3.93032 20.5042 3.57776L20.5121 3.59882C20.3035 3.27096 20.0267 2.9905 19.6999 2.77604C19.3731 2.56159 19.0038 2.41802 18.6164 2.35487L18.6007 2.35265C17.3643 2.06518 16.0801 2.03986 14.8331 2.27837L14.8893 2.2695C13.0924 2.58088 11.3532 3.15682 9.73005 3.978L9.83243 3.93032C5.22143 6.22163 2.84055 8.568 2.6898 10.9694V11.0238C2.6898 11.9916 3.07568 12.8708 3.70455 13.5205L3.70343 13.5194C4.41249 14.2978 5.20883 14.9945 6.07718 15.596L6.12105 15.6248C6.87851 16.1804 7.59229 16.7915 8.2563 17.4531L8.25743 17.4553L8.36993 17.5662L11.9699 15.6271C12.3696 15.0536 12.8675 14.5531 13.4414 14.1481L13.4594 14.1359C13.9094 13.7633 14.4809 13.5205 15.1076 13.4718L15.1177 13.4706C15.1402 13.4684 15.1661 13.4684 15.1931 13.4684C15.6127 13.4684 15.9727 13.7179 16.1279 14.0749L16.1302 14.0815C16.295 14.4505 16.3531 14.8573 16.2978 15.2568L16.2989 15.2457L16.1898 15.7923L16.3586 15.6814C16.4583 15.6067 16.5767 15.5598 16.7011 15.5455C16.8256 15.5313 16.9517 15.5503 17.0662 15.6005L17.0617 15.5982C17.1874 15.6299 17.2955 15.7091 17.3626 15.8186C17.4298 15.9281 17.4506 16.0592 17.4206 16.1836L17.4217 16.1803L17.2529 16.7901C16.9154 18.1198 16.6908 19.0803 16.5791 19.6716C16.5068 19.9256 16.4786 20.1899 16.4958 20.4532V20.4466C16.5146 20.6683 16.5427 20.7792 16.5802 20.7792C16.6177 20.7792 16.6923 20.6683 16.8041 20.4466L16.9728 20.0585C17.0103 20.0585 17.0103 20.077 16.9728 20.114L17.5916 18.839C19.0541 15.6622 19.8412 13.8883 19.9529 13.5172L20.2904 12.4651C20.3279 12.3911 20.4779 12.3176 20.7404 12.2444C21.0545 12.1629 21.3787 12.1256 21.7034 12.1336H21.7001C22.2251 12.1336 22.4876 12.2629 22.4876 12.5216L22.4313 12.7988C22.2892 13.1927 22.1731 13.5953 22.0837 14.0039L22.0713 14.0738C22.0147 14.4492 22.025 14.8316 22.1017 15.2035L22.0983 15.1825L22.1546 15.4031C22.2693 15.8654 22.4437 16.2712 22.6721 16.6415L22.6608 16.6227C23.1101 15.8843 23.5413 15.127 23.9546 14.351C24.2808 13.8155 24.5846 13.1946 24.8287 12.5449L24.8546 12.4673C24.9389 12.0493 25.0357 11.6967 25.1538 11.353L25.1358 11.4151C25.1733 11.3043 25.3334 11.2211 25.6162 11.1657C25.8839 11.1125 26.1911 11.0825 26.5049 11.0825H26.5454H26.5432C27.0682 11.0825 27.3483 11.2119 27.3836 11.4706L27.2711 11.6912C27.1372 12.0637 27.0202 12.5116 26.9414 12.9717L26.9347 13.0216C26.8994 13.4002 26.9199 13.7819 26.9954 14.1547L26.9909 14.1292V14.3498C27.1203 14.8332 27.3127 15.2579 27.5647 15.6426L27.5534 15.6248L27.7222 16.0129C28.7233 15.5352 29.8218 15.2887 30.9341 15.2922H30.9779H30.9757L30.9746 15.2956ZM6.85568 23.3369C7.66795 22.5117 8.12159 21.4067 8.12018 20.257C8.12048 19.8069 8.05144 19.3595 7.91543 18.9299L7.92443 18.9609L7.02443 19.5153C6.10643 20.0308 5.31218 20.6062 4.5933 21.2603L4.6023 21.2526C4.0498 21.752 3.6523 22.3955 3.45593 23.1085L3.44918 23.1363C3.28043 23.82 3.3648 24.2634 3.7023 24.4667C3.90818 24.5598 4.15005 24.6141 4.40318 24.6141C4.67993 24.6141 4.94205 24.5498 5.17268 24.4345L5.16255 24.439C5.80703 24.2109 6.38517 23.8311 6.84668 23.3325L6.85005 23.3292L6.85568 23.3369ZM14.3898 18.2325C14.5773 17.7521 14.7836 17.1792 15.0086 16.514C15.3086 15.6271 15.4117 15.11 15.3179 14.963C15.2242 14.8159 15.0461 14.7974 14.7836 14.9075C14.4804 15.0509 14.2128 15.2579 13.9994 15.514L13.9961 15.5184C13.7537 15.8219 13.5349 16.1428 13.3413 16.4785L13.3211 16.5162C13.0831 16.9034 12.897 17.3193 12.7676 17.7535L12.7574 17.7912C12.4953 18.5048 12.381 19.2629 12.4211 20.0208V20.0075C12.4586 20.7459 12.5786 21.1432 12.7811 21.1994C12.9836 21.2555 13.2179 20.9876 13.4842 20.3956C13.7418 19.9377 13.9713 19.4055 14.1423 18.8478L14.1581 18.788C14.2698 18.5263 14.3463 18.3411 14.3876 18.2325H14.3898ZM20.6291 21.1705C21.0167 21.0016 21.3514 20.7335 21.5984 20.3941C21.8455 20.0547 21.996 19.6563 22.0342 19.2403L22.0353 19.2314V19.176L21.4166 19.9521L20.2927 21.1716C20.284 21.1782 20.277 21.1866 20.2721 21.1962C20.2673 21.2058 20.2647 21.2163 20.2646 21.2271C20.2646 21.2493 20.2758 21.2692 20.2916 21.2825C20.3276 21.3187 20.4401 21.2818 20.6291 21.1716V21.1705ZM25.4654 20.1173C25.8856 20.0009 26.2558 19.7526 26.5198 19.41C26.7838 19.0675 26.9271 18.6493 26.9279 18.2192V18.176V18.1782C26.9167 17.9564 26.8762 17.748 26.8098 17.5506L26.8143 17.5673C26.3767 17.9509 26.0178 18.4099 25.7579 18.9276L25.7456 18.9531C25.4073 19.6176 25.3128 20.0049 25.4621 20.1151L25.4654 20.1173Z" fill="white"/>
</g>
<defs>
<clipPath id="clip0_2_251">
<rect width="36" height="26.6087" fill="white"/>
</clipPath>
</defs>
</svg>
