<svg width="36" height="36" viewBox="0 0 36 36" fill="none" xmlns="http://www.w3.org/2000/svg">
<g clip-path="url(#clip0_2_257)">
<path fill-rule="evenodd" clip-rule="evenodd" d="M22.5 3C23.7188 2.99992 24.9086 3.371 25.9113 4.06385C26.914 4.75671 27.6819 5.73847 28.1128 6.8785C28.5437 8.01854 28.6173 9.26277 28.3236 10.4456C28.03 11.6285 27.3831 12.6939 26.469 13.5C27.587 14.4837 28.2993 15.8481 28.4672 17.3277C28.6352 18.8074 28.2469 20.2967 27.3779 21.506C26.5088 22.7153 25.2211 23.5582 23.7651 23.8708C22.3091 24.1835 20.7889 23.9435 19.5 23.1975V27C19.4999 28.0026 19.2487 28.9892 18.7691 29.8696C18.2895 30.7501 17.597 31.4963 16.7548 32.0402C15.9125 32.584 14.9474 32.9082 13.9476 32.983C12.9478 33.0577 11.9452 32.8808 11.0315 32.4683C10.1177 32.0558 9.32179 31.421 8.71657 30.6217C8.11135 29.8224 7.71607 28.8841 7.56684 27.8927C7.41761 26.9013 7.51919 25.8883 7.8623 24.9463C8.20542 24.0042 8.77912 23.1632 9.531 22.5C8.89188 21.9375 8.38011 21.2452 8.02987 20.4692C7.67963 19.6932 7.49899 18.8514 7.5 18C7.49899 17.1486 7.67963 16.3068 8.02987 15.5308C8.38011 14.7548 8.89188 14.0625 9.531 13.5C8.61693 12.6939 7.97003 11.6285 7.67638 10.4456C7.38274 9.26277 7.45628 8.01854 7.88721 6.8785C8.31814 5.73847 9.08603 4.75671 10.0887 4.06385C11.0914 3.371 12.2812 2.99992 13.5 3H22.5ZM16.5 24H13.5C12.9067 24 12.3266 24.1759 11.8333 24.5056C11.3399 24.8352 10.9554 25.3038 10.7284 25.8519C10.5013 26.4001 10.4419 27.0033 10.5576 27.5853C10.6734 28.1672 10.9591 28.7018 11.3787 29.1213C11.7982 29.5409 12.3328 29.8266 12.9147 29.9424C13.4967 30.0581 14.0999 29.9987 14.648 29.7716C15.1962 29.5446 15.6648 29.1601 15.9944 28.6667C16.3241 28.1734 16.5 27.5933 16.5 27V24ZM16.5 15H13.5C12.7044 15 11.9413 15.3161 11.3787 15.8787C10.8161 16.4413 10.5 17.2044 10.5 18C10.5 18.7956 10.8161 19.5587 11.3787 20.1213C11.9413 20.6839 12.7044 21 13.5 21H16.5V15ZM22.5 15C21.7044 15 20.9413 15.3161 20.3787 15.8787C19.8161 16.4413 19.5 17.2044 19.5 18C19.5 18.7956 19.8161 19.5587 20.3787 20.1213C20.9413 20.6839 21.7044 21 22.5 21C23.2956 21 24.0587 20.6839 24.6213 20.1213C25.1839 19.5587 25.5 18.7956 25.5 18C25.5 17.2044 25.1839 16.4413 24.6213 15.8787C24.0587 15.3161 23.2956 15 22.5 15ZM22.5 6H19.5V12H22.5C23.2785 12.0035 24.0278 11.7042 24.5897 11.1654C25.1516 10.6266 25.4821 9.89053 25.5113 9.11259C25.5405 8.33466 25.2662 7.57583 24.7463 6.99642C24.2263 6.41702 23.5015 6.0624 22.725 6.0075L22.5 6ZM16.5 6H13.5C12.7044 6 11.9413 6.31607 11.3787 6.87868C10.8161 7.44129 10.5 8.20435 10.5 9C10.5 9.79565 10.8161 10.5587 11.3787 11.1213C11.9413 11.6839 12.7044 12 13.5 12H16.5V6Z" fill="white"/>
</g>
<defs>
<clipPath id="clip0_2_257">
<rect width="36" height="36" fill="white"/>
</clipPath>
</defs>
</svg>
