<svg width="36" height="36" viewBox="0 0 36 36" fill="none" xmlns="http://www.w3.org/2000/svg">
<path d="M17.3056 0.671356C17.3056 3.83767 19.8689 6.40042 23.0349 6.40042H24.3315L25.3718 6.40126V8.66167C25.3718 11.828 27.9349 14.3907 31.1001 14.3907V1.76458C31.1001 1.47481 30.9851 1.19687 30.7803 0.991868C30.5756 0.786866 30.2977 0.67158 30.008 0.671356H17.3056ZM22.3144 6.99667L22.3214 7.0037H22.2843L22.2837 7.00314H22.048L22.0292 7.0037H20.4896L20.3496 7.00314L20.3501 7.0037H17.4195L17.3377 7.00032L17.3408 7.0037H13.6257L13.6252 7.00314H11.0132V7.0037H11.0115C11.0115 10.17 13.5748 12.733 16.7397 12.733H19.0766V14.9943C19.0766 18.16 21.6397 20.7234 24.806 20.7234V8.09664C24.8057 7.80677 24.6905 7.52883 24.4855 7.32386C24.2806 7.11889 24.0026 7.00364 23.7127 7.00342H22.6868L22.3144 6.99639V6.99667ZM4.71769 13.3352C4.71769 16.5015 7.28072 19.0643 10.4459 19.0643H12.7828V21.3266C12.7828 24.4918 15.3461 27.0549 18.5119 27.0549V14.4281C18.5117 14.1383 18.3964 13.8604 18.1915 13.6555C17.9866 13.4505 17.7088 13.3352 17.4189 13.3349H4.71769V13.3352ZM15.6777 28.1064C15.2978 28.1064 15.0283 28.3435 15.0283 28.7359C15.0283 29.1389 15.2978 29.3653 15.6777 29.3653C16.0568 29.3653 16.326 29.1279 16.326 28.7359C16.326 28.3314 16.0568 28.1064 15.6777 28.1064ZM12.9367 28.4743V33.3104C12.9367 33.9995 12.6554 34.4739 11.8358 34.4739C11.4809 34.4739 11.126 34.4149 10.8326 34.2959V35.2111C11.1018 35.3056 11.493 35.3891 11.995 35.3891C13.329 35.3891 13.9033 34.5102 13.9033 33.25V28.4743H12.9367ZM22.9683 30.0071C21.4644 30.0071 20.7051 31.255 20.7051 32.7282C20.7051 34.2729 21.4268 35.4485 22.8583 35.4485C23.6897 35.4485 24.3383 35.0927 24.6808 34.4036V35.3419H25.6103V30.1134H24.6811V31.0286C24.3633 30.3519 23.7516 30.0071 22.9683 30.0071ZM20.338 30.031C19.2856 29.972 18.7484 30.4113 18.4298 31.0286V30.1134H17.525V35.3419H18.4298V32.2526C18.4298 31.1352 19.1517 30.7915 20.338 30.9102V30.031ZM15.1996 30.1134V35.3419H16.1303V30.1134H15.1996ZM23.2012 30.8509C23.9965 30.8509 24.6687 31.3619 24.6687 32.5263V32.9414C24.6687 34.1061 23.9352 34.6168 23.1033 34.6168C22.1484 34.6168 21.6343 33.9874 21.6222 32.7282C21.6222 31.5166 22.1605 30.8506 23.2009 30.8506L23.2012 30.8509Z" fill="white"/>
</svg>
